<svg width="45" height="45" viewBox="0 0 45 45" fill="none" xmlns="http://www.w3.org/2000/svg">
<path fill-rule="evenodd" clip-rule="evenodd" d="M43.1802 1.81977C44.3844 3.02389 44.3844 4.97615 43.1802 6.18026L6.18024 43.1803C4.97613 44.3844 3.02387 44.3844 1.81975 43.1803C0.615637 41.9761 0.615638 40.0239 1.81975 38.8198L38.8198 1.81977C40.0239 0.615656 41.9761 0.615656 43.1802 1.81977Z" fill="black"/>
<path fill-rule="evenodd" clip-rule="evenodd" d="M1.81975 1.81977C3.02387 0.615656 4.97613 0.615656 6.18025 1.81977L43.1802 38.8198C44.3844 40.0239 44.3844 41.9761 43.1802 43.1803C41.9761 44.3844 40.0239 44.3844 38.8198 43.1803L1.81975 6.18026C0.615638 4.97615 0.615638 3.02389 1.81975 1.81977Z" fill="black"/>
</svg>
